<svg width="165" height="32" viewBox="0 0 165 32" fill="none" xmlns="http://www.w3.org/2000/svg">
<ellipse cx="16" cy="16" rx="16" ry="16" fill="#7BDA08"/>
<path d="M9.09867 24.4163V20.7532L15.4837 24.5689L12.4176 26.4004L9.09867 24.4163ZM16.2634 24.4163V20.448L17.9281 19.4559L19.3295 18.6164V26.2478L16.2634 24.4163ZM19.8458 18.6164L21.2471 19.4559L22.9119 20.448V24.4163L19.8458 26.2478V18.6164ZM9.36208 20.2953L10.7634 19.4559L12.4281 18.4638L14.0929 19.4559L15.7577 20.448V24.111L9.3726 20.2953H9.36208ZM5.77968 18.1477L8.84578 16.3162L11.9119 18.1477L10.5105 18.9871L8.84578 19.9792L5.77968 18.1477ZM14.3458 18.9871L12.9445 18.1477L19.3295 14.332V17.995L17.6647 18.9871L16 19.9792L14.3352 18.9871H14.3458ZM19.8458 14.332L22.9119 16.1635V19.8266L21.5105 18.9871L19.8458 17.995V14.332ZM23.4281 16.1635L26.4942 14.332V17.995L23.4281 19.8266V16.1635ZM5.51627 14.0268L8.58237 12.1952V15.8583L5.51627 17.6898V14.0268ZM9.09867 15.8583V12.1952L10.5 13.0347L12.1647 14.0268V17.6898L9.09867 15.8583ZM12.681 14.0268L14.3458 13.0347L16.0105 12.0426L17.6753 13.0347L19.0766 13.8741L12.6916 17.6898V14.0268H12.681ZM20.0986 13.8741L21.5 13.0347L23.1647 12.0426L26.2308 13.8741L23.1647 15.7056L20.0986 13.8741ZM17.9281 12.5659L16.2634 11.5738V7.9108L22.6485 11.7265L21.2471 12.5659L19.5824 13.558L17.9176 12.5659H17.9281ZM10.7529 12.5659L9.08813 11.5738V7.60555L12.1542 5.77403V13.4054L10.7529 12.5659ZM12.681 5.77403L15.7471 7.60555V11.5738L14.0824 12.5659L12.681 13.4054V5.77403ZM16.5163 7.45292L19.5824 5.62141L22.9119 7.60555V11.2686L16.5268 7.45292H16.5163ZM19.5824 5L16 7.13677L12.4176 5L8.58237 7.2894V11.5738L5 13.7106V18.3003L8.58237 20.4371V24.7106L12.4176 27L16 24.8632L19.5824 27L23.4176 24.7106V20.4371L27 18.3003V13.7106L23.4176 11.5738V7.2894L19.5824 5Z" fill="black"/>
<path d="M43.7573 21.0061L43.5525 20.6206H47.8537C48.7212 20.6206 49.4802 20.5001 50.1067 20.2592C50.7332 20.0182 51.2634 19.6929 51.673 19.2712C52.0826 18.8616 52.3959 18.3676 52.6007 17.8134C52.8055 17.2592 52.9019 16.6447 52.9019 15.9941C52.9019 15.3435 52.8055 14.7531 52.6007 14.1989C52.3959 13.6447 52.0947 13.1507 51.673 12.729C51.2513 12.3073 50.7332 11.97 50.1067 11.729C49.4802 11.4881 48.7212 11.3676 47.8537 11.3676H43.4923L43.7573 11.0302V21.0061ZM41.1429 23.0423V8.95795H47.9621C49.179 8.95795 50.2754 9.13867 51.2272 9.50012C52.1911 9.86156 52.9983 10.3676 53.6489 11.0061C54.3115 11.6447 54.8055 12.4037 55.1429 13.2471C55.4802 14.1025 55.6489 15.0182 55.6489 15.9941C55.6489 16.97 55.4802 17.9098 55.1429 18.7531C54.8055 19.5965 54.3115 20.3435 53.6489 20.982C52.9862 21.6206 52.179 22.1266 51.2272 22.4881C50.2754 22.8495 49.1911 23.0302 47.9621 23.0302H41.1429V23.0423Z" fill="black"/>
<path d="M66.5887 23.2469C65.4682 23.2469 64.42 23.0782 63.4562 22.7288C62.4923 22.3914 61.6489 21.8854 60.926 21.2469C60.2031 20.5963 59.6489 19.8252 59.2513 18.9336C58.8537 18.042 58.6489 17.0661 58.6489 15.9818C58.6489 14.8975 58.8537 13.9939 59.2754 13.1143C59.6971 12.2348 60.2634 11.4758 60.9983 10.8252C61.7333 10.1746 62.5766 9.66855 63.5405 9.31916C64.5043 8.96976 65.5405 8.78903 66.6369 8.78903C67.4802 8.78903 68.2875 8.89747 69.0586 9.11433C69.8296 9.3312 70.5405 9.60831 71.1791 9.95771C71.8176 10.3071 72.3477 10.6926 72.7694 11.1023L71.2031 13.1746C70.7814 12.8011 70.3356 12.4758 69.8658 12.1866C69.3838 11.9095 68.8658 11.6926 68.3116 11.536C67.7453 11.3794 67.1429 11.3071 66.4802 11.3071C65.8176 11.3071 65.167 11.4155 64.5525 11.6324C63.9381 11.8493 63.3959 12.1625 62.9019 12.5722C62.4079 12.9818 62.0224 13.4758 61.7453 14.0661C61.4682 14.6445 61.3236 15.3071 61.3236 16.03C61.3236 16.789 61.4682 17.4758 61.7574 18.0661C62.0465 18.6565 62.4441 19.1505 62.9622 19.5481C63.4802 19.9577 64.0706 20.2589 64.7333 20.4758C65.3959 20.6926 66.0947 20.8011 66.8176 20.8011C67.5405 20.8011 68.1429 20.7047 68.7091 20.524C69.2754 20.3433 69.7694 20.1143 70.2152 19.8252C70.661 19.5481 71.0585 19.2589 71.42 18.9818L72.673 21.0782C72.3116 21.4035 71.8176 21.7288 71.1911 22.0782C70.5646 22.4155 69.8658 22.7047 69.0706 22.9336C68.2754 23.1625 67.4561 23.283 66.6007 23.283" fill="black"/>
<path d="M78.2273 19.97L79.1792 17.6929H86.9984L87.5406 19.97H78.2273ZM75.3117 23.0423L81.8298 8.95795H84.5286L91.0105 23.0423H88.2274L84.1189 14.1748C84.0105 13.9339 83.9021 13.6688 83.7816 13.3917C83.6611 13.1146 83.5406 12.8254 83.4322 12.5483C83.3117 12.2712 83.2033 11.982 83.0948 11.6929C82.9864 11.4037 82.89 11.1266 82.8177 10.8616L83.4442 10.8375C83.3478 11.1266 83.2515 11.4278 83.143 11.717C83.0346 12.0182 82.9262 12.2953 82.8057 12.5845C82.6852 12.8616 82.5647 13.1387 82.4442 13.4158C82.3237 13.6929 82.2033 13.9579 82.0828 14.2351L77.9984 23.0423H75.3238H75.3117Z" fill="black"/>
<path d="M104.432 23.0423L99.9862 16.6808L102.745 16.1748L107.589 23.0543L104.432 23.0302V23.0423ZM96.9983 15.6808H101.709C102.155 15.6808 102.565 15.5845 102.938 15.3796C103.312 15.1748 103.601 14.9098 103.818 14.5604C104.034 14.223 104.143 13.8375 104.143 13.4278C104.143 13.0182 104.034 12.6688 103.806 12.3555C103.577 12.0423 103.263 11.7893 102.866 11.5965C102.468 11.4158 102.034 11.3194 101.565 11.3194H96.9983V15.6808ZM94.4441 23.0423V8.95795H102.071C102.998 8.95795 103.818 9.15072 104.528 9.53626C105.239 9.92181 105.805 10.4399 106.227 11.1025C106.649 11.7652 106.866 12.5242 106.866 13.3676C106.866 14.211 106.637 14.9941 106.191 15.6929C105.745 16.3796 105.143 16.9339 104.396 17.3435C103.649 17.7531 102.818 17.9579 101.902 17.9579H97.0104V23.0423H94.4561H94.4441Z" fill="black"/>
<path d="M114.565 20.6929H119.781C120.348 20.6929 120.842 20.6206 121.263 20.476C121.685 20.3314 122.01 20.1266 122.239 19.8375C122.468 19.5483 122.577 19.1989 122.577 18.7772C122.577 18.3194 122.432 17.9579 122.155 17.6929C121.878 17.4278 121.504 17.223 121.058 17.1025C120.613 16.97 120.155 16.9098 119.685 16.9098H114.576V20.6929H114.565ZM114.565 14.6567H119.456C119.902 14.6567 120.299 14.5845 120.661 14.4519C121.022 14.3073 121.311 14.1146 121.516 13.8616C121.721 13.6086 121.83 13.3073 121.83 12.958C121.83 12.3917 121.589 11.982 121.107 11.717C120.625 11.4519 120.01 11.3194 119.251 11.3194H114.565V14.6567ZM112.01 23.0423V8.95795H119.312C120.444 8.95795 121.384 9.09048 122.143 9.36759C122.914 9.64469 123.48 10.0423 123.878 10.5604C124.263 11.0784 124.468 11.717 124.468 12.476C124.468 13.2351 124.239 13.8857 123.769 14.4278C123.311 14.97 122.625 15.3435 121.733 15.5724L121.817 15.1628C122.42 15.2953 122.986 15.5122 123.504 15.8254C124.022 16.1387 124.444 16.5363 124.745 17.0423C125.058 17.5483 125.215 18.1507 125.215 18.8375C125.215 19.6326 125.058 20.2953 124.757 20.8254C124.456 21.3676 124.034 21.7893 123.504 22.1146C122.974 22.4399 122.384 22.6688 121.733 22.8134C121.083 22.9579 120.42 23.0302 119.757 23.0302H112.01V23.0423Z" fill="black"/>
<path d="M137.167 20.7532C137.986 20.7532 138.733 20.6327 139.396 20.3917C140.071 20.1507 140.649 19.8134 141.143 19.3797C141.637 18.9459 142.022 18.4399 142.3 17.8616C142.577 17.2833 142.709 16.6688 142.709 15.9941C142.709 15.3194 142.577 14.705 142.3 14.1266C142.022 13.5483 141.637 13.0423 141.143 12.6086C140.649 12.1748 140.059 11.8375 139.396 11.5965C138.721 11.3556 137.986 11.2351 137.167 11.2351C136.348 11.2351 135.625 11.3556 134.95 11.5965C134.276 11.8375 133.685 12.1748 133.203 12.5965C132.709 13.0303 132.336 13.5363 132.071 14.1025C131.806 14.6809 131.673 15.3074 131.673 15.9941C131.673 16.6809 131.806 17.2953 132.071 17.8736C132.336 18.4519 132.721 18.97 133.203 19.3917C133.685 19.8254 134.276 20.1628 134.95 20.4038C135.625 20.6447 136.372 20.7652 137.167 20.7652M137.167 23.2471C135.986 23.2471 134.902 23.0664 133.902 22.6929C132.902 22.3194 132.035 21.8134 131.3 21.1507C130.565 20.4881 129.986 19.7291 129.589 18.8495C129.191 17.97 128.986 17.0182 128.986 15.9821C128.986 14.9459 129.191 13.9941 129.589 13.1146C129.986 12.2351 130.565 11.476 131.3 10.8134C132.035 10.1628 132.902 9.64472 133.902 9.27123C134.902 8.89773 135.986 8.71701 137.167 8.71701C138.348 8.71701 139.456 8.89773 140.456 9.27123C141.456 9.64472 142.324 10.1507 143.047 10.8134C143.782 11.476 144.348 12.2351 144.757 13.1146C145.167 13.9941 145.372 14.9459 145.372 15.9821C145.372 17.0182 145.167 17.97 144.757 18.8495C144.348 19.7291 143.782 20.5001 143.047 21.1507C142.312 21.8134 141.456 22.3194 140.456 22.6929C139.456 23.0544 138.36 23.2471 137.167 23.2471Z" fill="black"/>
<path d="M149.516 23.0422V8.95791H152.034L162.215 19.9579L161.938 20.0422C161.878 19.6085 161.818 19.1748 161.769 18.729C161.721 18.2832 161.685 17.8374 161.661 17.3796C161.637 16.9218 161.613 16.4639 161.589 15.9941C161.565 15.5242 161.553 15.0543 161.553 14.5844C161.553 14.1145 161.553 13.6447 161.553 13.1748V8.94586H164.143V23.0302H161.589L151.372 12.1868L151.733 12.0422C151.769 12.4157 151.806 12.7892 151.842 13.1627C151.878 13.5362 151.914 13.8977 151.95 14.2712C151.986 14.6447 152.022 15.0061 152.046 15.3676C152.071 15.729 152.095 16.1025 152.107 16.476C152.119 16.8495 152.131 17.223 152.131 17.5844V23.0302H149.54L149.516 23.0422Z" fill="black"/>
</svg>
